<?xml version="1.0" encoding="UTF-8"?>
<svg version="1.1" xmlns="http://www.w3.org/2000/svg" width="200" height="200">
<path d="M0 0 C8.44795132 5.95414276 15.63046351 14.44707968 22.9296875 21.7265625 C23.63697117 22.43101879 24.34425484 23.13547508 25.07297134 23.86127853 C28.8062282 27.57962774 32.53666483 31.30077819 36.26464844 35.02441406 C40.11136244 38.86561482 43.96728848 42.69742901 47.82539177 46.52718544 C50.79864789 49.48183427 53.76519078 52.44315377 56.72992325 55.406353 C58.14921089 56.82261598 59.57099693 58.23637984 60.995327 59.64757156 C62.98172752 61.61693091 64.95846277 63.59552124 66.93310547 65.57666016 C67.52114456 66.15548447 68.10918365 66.73430878 68.71504211 67.33067322 C72.70139411 71.35828199 74.95169835 74.44001258 75.0625 80.3125 C72.09550397 90.60972153 59.7121324 99.47081967 52.2734375 106.9296875 C51.56898121 107.63697117 50.86452492 108.34425484 50.13872147 109.07297134 C46.42037226 112.8062282 42.69922181 116.53666483 38.97558594 120.26464844 C35.13438518 124.11136244 31.30257099 127.96728848 27.47281456 131.82539177 C24.51816573 134.79864789 21.55684623 137.76519078 18.593647 140.72992325 C17.17738402 142.14921089 15.76362016 143.57099693 14.35242844 144.995327 C12.38306909 146.98172752 10.40447876 148.95846277 8.42333984 150.93310547 C7.84451553 151.52114456 7.26569122 152.10918365 6.66932678 152.71504211 C2.64171801 156.70139411 -0.44001258 158.95169835 -6.3125 159.0625 C-16.60972153 156.09550397 -25.47081967 143.7121324 -32.9296875 136.2734375 C-33.63697117 135.56898121 -34.34425484 134.86452492 -35.07297134 134.13872147 C-38.8062282 130.42037226 -42.53666483 126.69922181 -46.26464844 122.97558594 C-50.11136244 119.13438518 -53.96728848 115.30257099 -57.82539177 111.47281456 C-60.79864789 108.51816573 -63.76519078 105.55684623 -66.72992325 102.593647 C-68.14921089 101.17738402 -69.57099693 99.76362016 -70.995327 98.35242844 C-72.98172752 96.38306909 -74.95846277 94.40447876 -76.93310547 92.42333984 C-77.52114456 91.84451553 -78.10918365 91.26569122 -78.71504211 90.66932678 C-82.70139411 86.64171801 -84.95169835 83.55998742 -85.0625 77.6875 C-82.84427584 69.98895734 -75.38394176 64.24645283 -69.78125 58.71875 C-69.11967896 58.06096558 -68.45810791 57.40318115 -67.77648926 56.72546387 C-64.98421856 53.94933442 -62.18594584 51.17928463 -59.38818359 48.40869141 C-57.32959102 46.3683292 -55.27412097 44.32485669 -53.21875 42.28125 C-52.59875122 41.66954956 -51.97875244 41.05784912 -51.33996582 40.4276123 C-46.21571921 35.33169363 -41.50226284 29.93122219 -36.8125 24.4375 C-36.214375 23.963125 -35.61625 23.48875 -35 23 C-29.84498401 23.60462539 -26.8039682 27.48766509 -23.25 30.9375 C-22.55261719 31.56462891 -21.85523438 32.19175781 -21.13671875 32.83789062 C-16.21330046 37.62160331 -16.21330046 37.62160331 -15.59277344 41.6315918 C-15.625 44.3203125 -15.625 44.3203125 -15.8671875 46.80908203 C-16.06000881 49.98992474 -15.02494442 51.61345836 -13 54 C-12.31631348 54.33209473 -11.63262695 54.66418945 -10.92822266 55.00634766 C-7.68097423 58.3637838 -8.38985474 62.47300582 -8.3984375 66.9609375 C-8.38986725 67.94365631 -8.381297 68.92637512 -8.37246704 69.93887329 C-8.36097783 72.0184623 -8.35998198 74.0981317 -8.36865234 76.17773438 C-8.374964 79.35686912 -8.32810395 82.53226469 -8.27734375 85.7109375 C-8.27279671 87.73176614 -8.27139127 89.75260478 -8.2734375 91.7734375 C-8.25501801 92.72253998 -8.23659851 93.67164246 -8.21762085 94.64950562 C-8.3084929 101.14799598 -8.3084929 101.14799598 -10.35134888 103.66499329 C-11.98632812 104.9987793 -11.98632812 104.9987793 -15 107 C-16.26836769 110.01368356 -16.34227092 112.75983534 -16 116 C-14.32174851 119.55014738 -13.01410187 121.36961235 -9.6875 123.4375 C-6.06099111 124.19653674 -3.58424608 123.96006591 0 123 C2.58297781 120.81008403 4.48415844 119.03168312 6 116 C6.1290637 113.95492149 6.1290637 113.95492149 5.9375 111.6875 C5.90527344 110.92824219 5.87304688 110.16898437 5.83984375 109.38671875 C5.15095432 106.66410705 5.15095432 106.66410705 1.98413086 104.99658203 C-0.08327688 103.31809277 -0.89556818 102.42797225 -1.53303528 99.81556702 C-1.69409781 97.08178478 -1.67437036 94.4051454 -1.5859375 91.66796875 C-1.57744781 90.67622147 -1.56895813 89.68447418 -1.56021118 88.66267395 C-1.52669358 85.5031654 -1.45141516 82.34623361 -1.375 79.1875 C-1.34489838 77.04235463 -1.31752292 74.89716916 -1.29296875 72.75195312 C-1.22690856 67.5004268 -1.12657785 62.25039748 -1 57 C4.27093477 58.16009473 7.02284525 61.35824592 10.8125 65.0625 C11.51826172 65.70638672 12.22402344 66.35027344 12.95117188 67.01367188 C17.90308495 71.84986351 17.90308495 71.84986351 18.18237305 75.16430664 C17.89821068 77.12861564 17.45549396 79.06821757 17 81 C18.46819689 85.0954966 20.00122387 88.10584289 24 90 C28.67849244 90.71099041 31.9353448 90.6654095 36 88.125 C39.32200161 84.59537328 39.35252002 81.95045002 39.26953125 77.2578125 C38.84767006 73.72396079 37.72497032 72.24810051 35 70 C31.44691095 68.52387323 28.3805548 67.60561642 24.61816406 68.68041992 C22 69 22 69 19.96362305 67.8034668 C17.8438162 65.78971657 15.74769297 63.76242178 13.6875 61.6875 C12.94693359 61.00365234 12.20636719 60.31980469 11.44335938 59.61523438 C6.22551911 54.43586666 6.22551911 54.43586666 5.58349609 50.34814453 C5.62890625 47.67578125 5.62890625 47.67578125 5.90063477 45.22387695 C6.06395723 41.56858383 4.36144955 39.62383284 2 37 C-1.14652576 34.98941914 -3.06042454 34.94182628 -6.7109375 35.375 C-11.21390409 35.467606 -13.17984768 34.55454965 -16.4765625 31.5 C-17.88585594 30.02485173 -19.26848688 28.52382498 -20.625 27 C-21.34300781 26.236875 -22.06101563 25.47375 -22.80078125 24.6875 C-24.55876009 22.81232257 -26.28914714 20.9180937 -28 19 C-25.92244848 14.39759831 -22.72782292 11.39716742 -19.1875 7.875 C-18.57068359 7.24207031 -17.95386719 6.60914063 -17.31835938 5.95703125 C-11.90033426 0.5332484 -7.86947261 -2.26747516 0 0 Z " fill="#F4501D" transform="translate(105,21)"/>
</svg>
